<?xml version="1.0" encoding="UTF-8"?>
<svg id="Livello_1" xmlns="http://www.w3.org/2000/svg" version="1.1" xmlns:xlink="http://www.w3.org/1999/xlink" viewBox="0 0 144 28">
  <!-- Generator: Adobe Illustrator 29.8.1, SVG Export Plug-In . SVG Version: 2.1.1 Build 2)  -->
  <defs>
    <style>
      .st0 {
        fill: #fff;
      }

      .st1 {
        fill: none;
      }

      .st2 {
        clip-path: url(#clippath);
      }
    </style>
    <clipPath id="clippath">
      <rect class="st1" x="-19.07" y="-50.57" width="182.14" height="129.14"/>
    </clipPath>
  </defs>
  <polygon class="st0" points="52.59 4.26 52.59 8.89 60.29 8.89 60.29 11.63 52.59 11.63 52.59 18.69 49.33 18.69 49.33 1.51 60.7 1.51 60.7 4.26 52.59 4.26"/>
  <rect class="st0" x="60.64" y="15.59" width="2.88" height="3.1"/>
  <path class="st0" d="M77.09,15.39h-7.41l-1.07,3.3h-3.45l5.71-17.17h4.89l5.8,17.17h-3.38l-1.09-3.3ZM76.34,12.99l-2.97-8.95-2.92,8.95h5.89Z"/>
  <rect class="st0" x="83.23" y="15.59" width="2.88" height="3.1"/>
  <g class="st2">
    <path class="st0" d="M102.04,6.52h-3.18c-.02-.16-.03-.28-.03-.35-.08-.96-.29-1.57-.64-1.82-.35-.25-1.18-.37-2.49-.37-1.54,0-2.55.14-3.03.43-.47.29-.71.88-.71,1.8,0,1.08.19,1.73.58,1.95.39.22,1.66.39,3.82.5,2.56.14,4.21.51,4.96,1.09.75.59,1.13,1.81,1.13,3.66,0,2.28-.44,3.76-1.32,4.42s-2.82,1-5.83,1c-2.7,0-4.49-.33-5.38-.98-.88-.65-1.33-1.98-1.33-3.98v-.63s3.16,0,3.16,0v.36c.01,1.2.22,1.93.64,2.2.42.27,1.56.4,3.43.4,1.46,0,2.39-.16,2.79-.47.4-.31.6-1.03.6-2.15,0-.83-.15-1.38-.46-1.65-.31-.27-.97-.44-1.98-.5l-1.8-.11c-2.72-.16-4.45-.54-5.21-1.13-.75-.6-1.13-1.87-1.13-3.84s.45-3.34,1.37-4.01c.91-.67,2.73-1,5.45-1,2.58,0,4.32.31,5.22.92.9.61,1.35,1.81,1.35,3.59v.65Z"/>
    <path class="st0" d="M115.5,15.39h-7.41l-1.07,3.3h-3.45l5.71-17.17h4.89l5.8,17.17h-3.38l-1.09-3.3ZM114.74,12.99l-2.97-8.95-2.92,8.95h5.89Z"/>
    <rect class="st0" x="121.63" y="15.59" width="2.88" height="3.1"/>
    <path class="st0" d="M52.75,21.65h-.91s0-.08,0-.1c-.02-.27-.08-.45-.18-.52s-.34-.11-.71-.11c-.44,0-.73.04-.86.12-.13.08-.2.25-.2.51,0,.31.05.49.16.55.11.06.47.11,1.09.14.73.04,1.2.14,1.41.31.21.17.32.51.32,1.04,0,.65-.13,1.07-.38,1.26-.25.19-.8.28-1.66.28-.77,0-1.28-.09-1.53-.28-.25-.19-.38-.56-.38-1.13v-.18s.9,0,.9,0v.1c0,.34.06.55.18.63.12.08.45.11.98.11.42,0,.68-.04.79-.13.11-.09.17-.29.17-.61,0-.24-.04-.39-.13-.47-.09-.08-.28-.12-.56-.14l-.51-.03c-.77-.05-1.27-.15-1.48-.32-.21-.17-.32-.53-.32-1.09s.13-.95.39-1.14c.26-.19.78-.28,1.55-.28.74,0,1.23.09,1.49.26s.38.51.38,1.02v.19Z"/>
    <path class="st0" d="M56.64,24.17h-2.11l-.3.94h-.98l1.62-4.89h1.39l1.65,4.89h-.96l-.31-.94ZM56.43,23.49l-.84-2.54-.83,2.54h1.67Z"/>
    <path class="st0" d="M60.43,22.51h2.15v.97c.01.71-.12,1.16-.38,1.37-.27.2-.86.31-1.78.31-.84,0-1.4-.14-1.68-.41-.27-.27-.41-.83-.41-1.66,0-1.07.05-1.74.16-2.03.14-.34.34-.58.62-.69.28-.12.75-.18,1.41-.18.87,0,1.43.09,1.68.28.25.18.38.59.38,1.23h-.94c-.02-.32-.09-.52-.21-.6-.12-.08-.43-.12-.93-.12-.54,0-.88.07-1.02.2-.14.13-.22.45-.22.94v.49s0,.63,0,.63c0,.48.07.79.21.92.14.13.47.2.99.2s.83-.06.96-.17c.14-.11.21-.38.21-.79v-.2s-1.22,0-1.22,0v-.68Z"/>
    <polygon class="st0" points="64.34 20.23 64.34 24.28 66.63 24.28 66.63 25.11 63.42 25.11 63.42 20.23 64.34 20.23"/>
    <rect class="st0" x="67.27" y="20.23" width=".93" height="4.89"/>
    <path class="st0" d="M72.19,24.17h-2.11l-.3.94h-.98l1.62-4.89h1.39l1.65,4.89h-.96l-.31-.94ZM71.97,23.49l-.84-2.54-.83,2.54h1.67Z"/>
    <path class="st0" d="M78.59,20.23v4.89h-1.57l-1.4-2.68c-.07-.13-.18-.37-.33-.7l-.16-.35-.15-.35h-.04v.32s.03.32.03.32v.64s0,2.8,0,2.8h-.93v-4.89h1.57l1.27,2.48c.11.22.24.49.39.8l.19.4.19.4h.03v-.31s-.02-.32-.02-.32v-.63s0-2.81,0-2.81h.93Z"/>
    <path class="st0" d="M81.65,20.18c.89,0,1.46.15,1.71.44.26.29.38.95.38,1.98,0,1.12-.13,1.82-.38,2.12-.26.29-.88.44-1.86.44-.89,0-1.46-.14-1.72-.43-.26-.29-.39-.92-.39-1.9,0-1.16.13-1.9.38-2.19.26-.3.88-.45,1.88-.45M81.57,20.98c-.62,0-.99.08-1.09.24-.11.16-.16.71-.16,1.66,0,.7.06,1.12.18,1.27s.49.21,1.09.21.92-.08,1.03-.24c.11-.16.17-.65.17-1.47s-.05-1.3-.16-1.45c-.11-.15-.46-.22-1.07-.22"/>
    <polygon class="st0" points="88.49 21.06 88.49 25.11 87.56 25.11 87.56 21.06 86.15 21.06 86.15 20.23 89.95 20.23 89.95 21.06 88.49 21.06"/>
    <path class="st0" d="M90.58,25.11v-4.89h2.41c.6,0,1.01.1,1.24.31s.34.58.34,1.13c0,.49-.06.83-.17,1.01-.11.18-.35.31-.7.38v.03c.54.03.81.35.81.95v1.08h-.93v-.89c0-.5-.25-.76-.74-.76h-1.34v1.65h-.93ZM91.51,22.69h1.33c.32,0,.53-.06.63-.17.1-.11.16-.34.16-.68s-.04-.57-.13-.67c-.09-.1-.29-.15-.59-.15h-1.4v1.68Z"/>
    <path class="st0" d="M98.43,24.17h-2.11l-.3.94h-.98l1.62-4.89h1.39l1.65,4.89h-.96l-.31-.94ZM98.22,23.49l-.84-2.54-.83,2.54h1.68Z"/>
    <path class="st0" d="M103.92,21.65h-.91s0-.08,0-.1c-.02-.27-.08-.45-.18-.52s-.34-.11-.71-.11c-.44,0-.73.04-.86.12-.13.08-.2.25-.2.51,0,.31.05.49.16.55.11.06.47.11,1.09.14.73.04,1.2.14,1.41.31.21.17.32.51.32,1.04,0,.65-.13,1.07-.38,1.26-.25.19-.8.28-1.66.28-.77,0-1.28-.09-1.53-.28-.25-.19-.38-.56-.38-1.13v-.18s.9,0,.9,0v.1c0,.34.06.55.18.63.12.08.45.11.98.11.42,0,.68-.04.79-.13.11-.09.17-.29.17-.61,0-.24-.04-.39-.13-.47-.09-.08-.28-.12-.56-.14l-.51-.03c-.77-.05-1.27-.15-1.48-.32-.21-.17-.32-.53-.32-1.09s.13-.95.39-1.14c.26-.19.78-.28,1.55-.28.73,0,1.23.09,1.49.26.26.17.38.51.38,1.02v.19Z"/>
    <path class="st0" d="M104.86,25.11v-4.89h2.21c.66,0,1.11.12,1.34.35.23.23.35.67.35,1.33s-.11,1.09-.33,1.3c-.22.21-.66.32-1.33.32h-.21s-1.09,0-1.09,0v1.58h-.93ZM105.78,22.75h1.06c.42,0,.69-.05.8-.15.11-.1.17-.33.17-.69,0-.41-.05-.67-.14-.77-.09-.1-.34-.15-.74-.15h-1.15v1.75Z"/>
    <path class="st0" d="M111.54,20.18c.89,0,1.46.15,1.71.44.26.29.38.95.38,1.98,0,1.12-.13,1.82-.38,2.12-.26.29-.88.44-1.86.44-.89,0-1.46-.14-1.72-.43-.26-.29-.39-.92-.39-1.9,0-1.16.13-1.9.38-2.19.26-.3.88-.45,1.88-.45M111.47,20.98c-.62,0-.99.08-1.09.24-.11.16-.16.71-.16,1.66,0,.7.06,1.12.18,1.27.12.14.48.21,1.09.21s.92-.08,1.03-.24c.11-.16.17-.65.17-1.47s-.05-1.3-.16-1.45c-.11-.15-.46-.22-1.07-.22"/>
    <path class="st0" d="M114.43,25.11v-4.89h2.41c.6,0,1.01.1,1.24.31s.34.58.34,1.13c0,.49-.06.83-.17,1.01s-.35.31-.7.38v.03c.54.03.81.35.81.95v1.08h-.93v-.89c0-.5-.25-.76-.74-.76h-1.34v1.65h-.93ZM115.36,22.69h1.33c.32,0,.53-.06.63-.17.1-.11.16-.34.16-.68s-.04-.57-.13-.67c-.09-.1-.29-.15-.59-.15h-1.4v1.68Z"/>
    <polygon class="st0" points="121.27 21.06 121.27 25.11 120.34 25.11 120.34 21.06 118.93 21.06 118.93 20.23 122.73 20.23 122.73 21.06 121.27 21.06"/>
    <rect class="st0" x="123.37" y="20.23" width=".93" height="4.89"/>
    <path class="st0" d="M36.52,1.98c-.59-.39-1.28-.6-2.01-.6h-7.12c-1.3,0-2.5.69-3.15,1.82l-3.56,6.17c-.65,1.13-.65,2.51,0,3.64l3.56,6.17c.32.55.77,1,1.29,1.31"/>
    <path class="st0" d="M36.52,7.62c.46.31.86.72,1.14,1.22l3.56,6.17c.65,1.13.65,2.51,0,3.64l-3.56,6.17c-.65,1.13-1.85,1.82-3.15,1.82h-7.12c-.67,0-1.31-.18-1.86-.51"/>
    <path class="st0" d="M24.96,2.3c.34-.27.86-.63,1.56-.83.41-.12,1.12-.11,2.54-.1.55,0,1.27.03,2.38,0,.21,0,1.69-.04,3.06,0,.08,0,.27,0,.52.04.43.06.75.19.88.24.17.07.38.17.61.32-.36.58-.72,1.16-1.07,1.74h-8.93c-1.85,3.27-3.69,6.54-5.54,9.81-.29-.4-.45-.77-.55-1.04-.07-.19-.19-.54-.23-1.02-.01-.18-.03-.52.05-.95.05-.3.14-.56.22-.74.08-.16.16-.32.25-.48.27-.46.48-.83.62-1.07,0,0,2.08-3.68,2.95-5.11.05-.08.17-.27.36-.49.13-.15.25-.26.34-.34"/>
    <path class="st0" d="M25.52,26.13c.19.11.43.23.72.33.3.1.58.16.8.18h7.76c.18-.02.37-.06.59-.11.16-.04.31-.09.45-.14.17-.09.35-.17.52-.26l.34-.23c.1-.09.2-.19.3-.28.08-.08.17-.16.25-.24.16-.23.31-.45.47-.68l3.66-6.38.18-.5.14-.7v-.95l-.24-.66c-.1-.21-.21-.42-.32-.64-.38-.74-.78-1.42-1.18-2.04-.73-1.27-1.46-2.53-2.19-3.8-.06-.12-.13-.24-.22-.38-.11-.16-.21-.29-.31-.41-.09-.1-.19-.2-.3-.3-.15-.13-.29-.24-.42-.32-.47.78-.93,1.55-1.4,2.33,1.41,2.39,2.82,4.79,4.23,7.18l-4.01,7.03c-2.87-.02-5.75-.04-8.62-.06-.4.68-.8,1.36-1.19,2.03"/>
  </g>
</svg>